<svg width="200" height="200" viewBox="0 0 200 200" fill="none" xmlns="http://www.w3.org/2000/svg">
  <!-- Dual Flame Icon -->
  <defs>
    <linearGradient id="orangeFlame" x1="0%" y1="0%" x2="0%" y2="100%">
      <stop offset="0%" style="stop-color:#FFB84D;stop-opacity:1" />
      <stop offset="50%" style="stop-color:#FF5200;stop-opacity:1" />
      <stop offset="100%" style="stop-color:#DC2626;stop-opacity:1" />
    </linearGradient>
    <linearGradient id="blueFlame" x1="0%" y1="0%" x2="0%" y2="100%">
      <stop offset="0%" style="stop-color:#60A5FA;stop-opacity:1" />
      <stop offset="50%" style="stop-color:#3B82F6;stop-opacity:1" />
      <stop offset="100%" style="stop-color:#1E40AF;stop-opacity:1" />
    </linearGradient>
  </defs>

  <!-- Orange Flame (Right) -->
  <path d="M 120 180 Q 130 150 135 120 Q 140 90 145 70 Q 150 40 155 20 Q 152 30 150 45 Q 148 60 146 75 Q 144 95 140 115 Q 135 140 130 160 Q 125 175 120 180 Z" fill="url(#orangeFlame)"/>
  <path d="M 120 180 Q 125 160 128 135 Q 130 115 132 95 Q 134 75 136 60 Q 138 40 140 25 L 138 35 Q 136 50 134 70 Q 132 90 130 110 Q 127 135 123 155 Q 120 170 120 180 Z" fill="url(#orangeFlame)" opacity="0.8"/>

  <!-- Blue Flame (Left) -->
  <path d="M 80 180 Q 70 150 65 120 Q 60 90 55 70 Q 50 40 45 20 Q 48 30 50 45 Q 52 60 54 75 Q 56 95 60 115 Q 65 140 70 160 Q 75 175 80 180 Z" fill="url(#blueFlame)"/>
  <path d="M 80 180 Q 75 160 72 135 Q 70 115 68 95 Q 66 75 64 60 Q 62 40 60 25 L 62 35 Q 64 50 66 70 Q 68 90 70 110 Q 73 135 77 155 Q 80 170 80 180 Z" fill="url(#blueFlame)" opacity="0.8"/>

  <!-- Circuit board patterns -->
  <circle cx="125" cy="80" r="2" fill="white" opacity="0.6"/>
  <circle cx="135" cy="100" r="2" fill="white" opacity="0.6"/>
  <circle cx="130" cy="60" r="2" fill="white" opacity="0.6"/>
  <line x1="125" y1="80" x2="135" y2="100" stroke="white" stroke-width="0.5" opacity="0.4"/>
  <line x1="130" y1="60" x2="125" y2="80" stroke="white" stroke-width="0.5" opacity="0.4"/>

  <circle cx="75" cy="80" r="2" fill="white" opacity="0.6"/>
  <circle cx="65" cy="100" r="2" fill="white" opacity="0.6"/>
  <circle cx="70" cy="60" r="2" fill="white" opacity="0.6"/>
  <line x1="75" y1="80" x2="65" y2="100" stroke="white" stroke-width="0.5" opacity="0.4"/>
  <line x1="70" y1="60" x2="75" y2="80" stroke="white" stroke-width="0.5" opacity="0.4"/>
</svg>
